/* XPM */
static char *c[] = {
/* columns rows colors chars-per-pixel */
"50 50 147 2 ",
"   c #0A0E2F",
".  c #0C102E",
"X  c #1C1D23",
"o  c #11142D",
"O  c #16182A",
"+  c #1C1E2E",
"@  c #0B0F31",
"#  c #0C1033",
"$  c #0E133B",
"%  c #121634",
"&  c #161932",
"*  c #1B1D30",
"=  c #161A3B",
"-  c #1F2022",
";  c #1E2136",
":  c #222222",
">  c #25262A",
",  c #2D2D2D",
"<  c #2C2D32",
"1  c #23253B",
"2  c #2A2C3B",
"3  c #333333",
"4  c #34353C",
"5  c #37383E",
"6  c #3C3C3C",
"7  c #151A43",
"8  c #191E46",
"9  c #13154A",
"0  c #13194A",
"q  c #161C51",
"w  c #1E2244",
"e  c #1F234B",
"r  c #1E2355",
"t  c #1B215B",
"y  c #242443",
"u  c #262A45",
"i  c #2B2D42",
"p  c #202449",
"a  c #2C2948",
"s  c #373840",
"d  c #3B3C44",
"f  c #303348",
"g  c #252454",
"h  c #23295E",
"j  c #2D2C5D",
"k  c #2E3351",
"l  c #1F1E6E",
"z  c #1D2667",
"x  c #1F286D",
"c  c #282D60",
"v  c #20296E",
"b  c #222077",
"n  c #212B73",
"m  c #292B74",
"M  c #262679",
"N  c #242D7A",
"B  c #3F367B",
"V  c #393E7F",
"C  c #423858",
"Z  c #3D4461",
"A  c #3D416E",
"S  c #3E4375",
"D  c #3C417F",
"F  c #444444",
"G  c #44444C",
"H  c #4E4E4E",
"J  c #474855",
"K  c #494A50",
"L  c #535353",
"P  c #585858",
"I  c #434A65",
"U  c #41436F",
"Y  c #424770",
"T  c #51527C",
"R  c #272586",
"E  c #292786",
"W  c #262E80",
"Q  c #272588",
"!  c #273283",
"~  c #293489",
"^  c #393E87",
"/  c #2D3494",
"(  c #2F3599",
")  c #353995",
"_  c #30349C",
"`  c #33389E",
"'  c #3235A0",
"]  c #373AA6",
"[  c #3433AD",
"{  c #3839AF",
"}  c #3734B2",
"|  c #3932BD",
" . c #413A94",
".. c #3B4083",
"X. c #3F408C",
"o. c #565785",
"O. c #53558B",
"+. c #404196",
"@. c #484D9D",
"#. c #565D97",
"$. c #62659B",
"%. c #5357AF",
"&. c #4447B5",
"*. c #4745BE",
"=. c #494DBA",
"-. c #5559B5",
";. c #5A5FB7",
":. c #5A62A2",
">. c #666AA7",
",. c #6F6EA0",
"<. c #7372AC",
"1. c #6366B6",
"2. c #6C75B8",
"3. c #7D7CB7",
"4. c #3D37C0",
"5. c #3F3AC1",
"6. c #423EC3",
"7. c #4643C3",
"8. c #4A48C7",
"9. c #4C4BC8",
"0. c #4E51C1",
"q. c #5558C6",
"w. c #5251CB",
"e. c #5A5DD0",
"r. c #696ECF",
"t. c #727BC0",
"y. c #6165D3",
"u. c #6469D4",
"i. c #6B6DD5",
"p. c #736DD7",
"a. c #6F74D9",
"s. c #7173D8",
"d. c #7379DA",
"f. c #7980DD",
"g. c #8886C2",
"h. c #8E8ECC",
"j. c #8993DD",
"k. c #9D9AD7",
"l. c #9C9AD9",
"z. c #868EE2",
"x. c #919BE7",
"c. c #949CE8",
"v. c #9FA4EC",
"b. c #A7AAF0",
"n. c #B2B1F4",
"m. c #B8B4F6",
"M. c #BDB8F8",
/* pixels */
"F F F F H F F F , : : : , 6 6 6 6 6 6 6 6 F F H F 6 6 6 6 F F F F , : : : : , , 3 3 6 6 6 6 6 6 6 6 ",
"F F F F F F F F , : : : , 6 6 6 6 6 6 6 F F F F F 6 6 F 6 F F F 6 , : : : : , , , 3 6 6 6 6 6 6 6 6 ",
"F F F H F F F F , : : : , 6 6 6 6 6 6 6 6 F H F F 6 6 6 6 F H F F , : : : : 3 , , 3 3 6 6 6 6 6 6 6 ",
"F H F F F F F F : : - : , 6 6 6 6 6 6 6 F F F F F 6 6 6 6 F F F 6 , : : : : , , , 3 6 6 6 6 6 6 6 6 ",
"F H F F H F F F , : : : , 6 6 6 6 6 6 6 6 F F F F 6 6 6 F F F F F , : : : : , , 3 3 6 6 6 6 6 6 6 6 ",
"F F F H F F F F , : : : , 6 6 6 6 6 6 6 F F F F F 6 6 6 6 F F F 6 , : : : , , , , 3 6 6 6 6 6 6 6 6 ",
"F F F F F F F F , : : : , 6 6 6 6 6 6 6 6 F F s p p i 6 6 6 F F F , : : : : , , , 3 6 6 6 6 6 6 6 6 ",
"F F F F F F F F , : : : , 6 6 6 6 6 6 6 F F F 3 0 0 i 6 6 F F H F , : : : : , 3 3 3 3 6 3 6 6 6 6 6 ",
"F 6 F 6 6 F 6 6 , : : : : 3 3 3 3 6 6 6 6 6 6 u 0 0 y 3 3 6 F F F , : : : : 3 3 6 3 3 3 3 3 3 3 3 3 ",
"F 6 6 6 6 6 6 6 , : - - , , 3 , 3 6 6 6 f p u o.3.3.T * ; 2 F F 6 , : : : , 6 6 6 3 3 , , , , , , , ",
"6 6 6 6 6 6 6 6 : : - - , , , , 3 6 6 6 p 0 0 <.M.M.,.  . ; F F F , : - : , 6 6 6 3 , , , , , , , , ",
"6 6 6 6 6 6 6 3 , : - : : , , 3 3 5 6 6 y 0 0 <.M.M.,.#   ; F H F , : - - , 6 6 6 3 3 , , , , , , , ",
"3 , , , , , , , : : - - : : : : > , , , w 0 0 >.b.b.$.    O 3 3 , : : - : : , , , , : : : : , : : , ",
"- : - : : : : : : : : : : : : : : - : : = 0 0 :.x.x.#..   o - - - : : : : : : : : : : : : : : : : : ",
"- - : : : : : : : : : : - : : : : - - - = 0 0 :.x.x.#.# . . : - : - : : : : : : : : : : : - : : : : ",
": : : : : : : : : : : : : : : : : + + X U O.O.1.a.a.@.q 0 = O X X , : : : : : : : : : : > : : : : : ",
", , , 3 , < , < , , , , < < 3 3 3 w 0 0 g.M.M.p.| | ' ~ ~ x @   o 3 3 3 3 , , , , , , , , , , , , , ",
"6 F F F F 6 F F 6 F d F F L H L H p 0 0 g.M.M.p.| | [ ~ ~ x     = F H H L F d F 6 F F 6 F F F 6 6 F ",
"F F F F F F F F d d d d G J J J K A S V h.n.n.p.6.6.{ / / N 9 9 8 d G G G d s s s 5 F F F F F F F F ",
"F F F F F F F d 0 0 0 0 0 0 0 0 0 k.M.M.v.x.x.d.e.e.9.| 4.[ ~ ! N     @ #   . . . . d F F F H F F H ",
"F F F 6 F F F s 0 0 0 0 0 0 0 0 0 k.M.M.v.x.x.d.e.e.8.4.| [ ~ ~ N @   @         . # s F d F F 6 F F ",
"F 6 F 6 d 6 6 5 0 0 0 c c j h h h k.m.m.c.z.z.d.y.y.w.4.4.} ~ / W $ $ $ $ $ $       4 6 6 6 F 6 6 6 ",
"6 6 6 6 6 6 5 s 0 0 r M.M.M.x.x.x.x.x.x.w.| | i.x.x.f.e.e.9.4.| } ' ' ` ~ ! ~ #     4 6 6 6 6 6 6 6 ",
"6 6 6 6 6 6 6 s 0 0 r M.M.M.c.x.x.x.x.x.w.| | i.x.x.f.e.e.9.| | | ' ' ' ~ ~ ~ #     3 6 6 6 6 6 6 6 ",
"6 6 6 6 6 6 6 5 0 0 r M.M.M.x.x.x.x.x.x.w.4.| r.x.x.d.e.e.w.4.4.| ` ' ` ~ ~ ~ # . o 6 6 6 6 6 6 6 6 ",
", , , , , , , , , , ,       q.e.e.4.| | d.x.x.d.e.e.e.e.e.0.' ' ) I I Z   .   5 6 6 6 6 6 6 6 6 6 6 ",
", , , , , , , , , , , .     q.e.e.4.| 4.d.x.x.d.e.e.e.e.e.0.' ' ) I I Z       6 6 6 6 6 6 6 6 6 6 6 ",
", , , , , , , , , , , .     q.e.e.5.| | d.x.x.d.e.e.e.e.e.0.' ' ) I I Z       5 6 6 6 6 6 6 6 6 6 6 ",
", , : : , , : , , , : , < < t t t A S Y -.y.y.=.] ] ] ] ' ' ~ / N % % % : , , 3 3 3 3 3 3 3 3 3 3 3 ",
": : , : : , , : : : > : > , 8 0 0 Z I I %.e.e.&.' ' ' ' ' ( ~ ~ N . @ . : , , : , , , , , : , , , , ",
": : - - : - - - : : - : : - 0 0 0 Z I I -.e.e.=.' ' ' ' ' ( ~ ~ N .   . : : - - : : : : - - : - : : ",
": : : : : - - - - - - 7 = = 2.t.2.;.-.-.7.6.5.X.S S ^ ' ' ( ( ( / v v z o O o - : - - - : : : - - : ",
": : : : : : : : : : - 0 0 0 j.x.x.u.e.e.6.| | +.J I D ' ' ' ' ' ( ~ ~ !       : : > : , : : , : , : ",
"3 6 6 6 6 6 6 6 : : - 0 0 0 j.x.x.u.e.e.6.| |  .I I D ' ' ' ' ' ( Q ~ !       4 6 6 F F F H F F F F ",
"F F F F F F F 6 , : : # $ # r.a.p.9.8.6. .B B j w w m } } } } } [ ( ( /     o 6 F F H L L L L L L L ",
"F F F F F F F F , : : . . . q.e.e.6.| | B C C y . @ l | | | 4.| } ' ' (     . 6 H H P P P P P P P P ",
"F F F F F F F F , : - @     q.e.e.5.| | B C k y .   z 4.| 4.| | | ' ' (       C F H P P P P P P P P ",
"L H H H L L H F ; O o t t t 7.8.8.E b b g y a 2 2 2 g b b b b b b ^ ..V y y y 2 2 i F L H L H H H H ",
"P P P P P P P H     # ~ ~ ~ | | | 9     .   . 2 F F 2 #         = I I I C C C % # . 6 F F F F F F H ",
"P P P P P P P H     # ~ ~ ~ } | | 9         . 2 F F 2 #         % I I I C C C @     6 F H F F H F F ",
"L L L L L L L K     . z z z R R R w ; ; ; ; 1 4 F F 4 ; ; ; ; > 1 k k a a a a #     d F F F F F F F ",
"L H L H L L H F                   4 6 d F 6 F F F 6 6 6 F F F H d   @               5 F F F F F F F ",
"F 6 6 F F 6 F 3   . . . . #       , , 3 5 6 6 6 6 3 , 3 5 6 F F d                   4 6 6 6 6 6 6 6 ",
"6 6 6 6 6 6 6 3 . o . o . o o o O , , 3 3 3 6 6 6 , , , 3 6 F F d o o o o o O O O % 4 6 6 6 6 6 6 6 ",
"6 6 6 6 6 6 6 3 : : - - > , , , , , , , 3 6 6 6 6 , , , 3 6 F H F , : : : : , , , 3 6 6 6 6 6 6 6 6 ",
"6 6 6 6 6 6 6 6 , : : - > , , , , , , , 3 6 6 6 6 , , , 3 6 F F 6 < : - : , , , 3 3 6 6 6 6 6 6 6 6 ",
"6 6 6 6 6 6 6 6 : : : : , , , , , , , , 3 6 6 6 6 , , , 3 6 F H F , : : - : , , , 3 6 6 6 6 6 6 6 6 ",
"6 6 6 6 6 6 6 6 , : : : : , , , , , , , 3 3 6 6 6 , , , 3 6 F F 6 , : : - : , , , 3 6 6 6 6 6 6 6 6 ",
"6 6 6 6 6 6 6 6 : : : - : , , , , , , , 3 6 6 6 6 , , , 3 6 F F F , : : : : , , 3 3 6 6 6 6 6 6 6 6 ",
"6 6 6 6 6 6 6 6 , : : : > , , , , , , , 6 3 6 6 6 , , , 3 6 F F F , : : - : , , , 3 6 6 6 6 6 6 6 6 "
};
