/* XPM */
static char *collectible[] = {
/* columns rows colors chars-per-pixel */
"50 28 179 2 ",
"   c #000000",
".  c #010000",
"X  c #010001",
"o  c #010101",
"O  c #020000",
"+  c #030000",
"@  c #020100",
"#  c #030100",
"$  c #020001",
"%  c #030101",
"&  c #030202",
"*  c #040000",
"=  c #050000",
"-  c #040100",
";  c #050100",
":  c #060000",
">  c #070000",
",  c #060100",
"<  c #070100",
"1  c #070001",
"2  c #070200",
"3  c #090000",
"4  c #0A0000",
"5  c #0B0000",
"6  c #0B0100",
"7  c #0B0001",
"8  c #090200",
"9  c #090201",
"0  c #0B0300",
"q  c #0A0301",
"w  c #090303",
"e  c #0C0000",
"r  c #0D0000",
"t  c #0C0101",
"y  c #0D0101",
"u  c #0F0000",
"i  c #0C0300",
"p  c #0F0300",
"a  c #0F0400",
"s  c #0E0500",
"d  c #110000",
"f  c #100100",
"g  c #120100",
"h  c #130100",
"j  c #120001",
"k  c #130300",
"l  c #100303",
"z  c #140100",
"x  c #150202",
"c  c #100500",
"v  c #120700",
"b  c #130700",
"n  c #150500",
"m  c #140600",
"M  c #140505",
"N  c #160505",
"B  c #1B0101",
"V  c #190300",
"C  c #1C0101",
"Z  c #1D0101",
"A  c #1D0500",
"S  c #1C0501",
"D  c #180404",
"F  c #130801",
"G  c #160900",
"H  c #180800",
"J  c #1A0B00",
"K  c #1F0900",
"L  c #1D0A01",
"P  c #1F0D01",
"I  c #1C0E01",
"U  c #1E0E00",
"Y  c #1E0F00",
"T  c #200200",
"R  c #230102",
"E  c #260201",
"W  c #250102",
"Q  c #270303",
"!  c #290102",
"~  c #2F0802",
"^  c #290D01",
"/  c #330102",
"(  c #300202",
")  c #350101",
"_  c #360102",
"`  c #320401",
"'  c #380102",
"]  c #211001",
"[  c #241100",
"{  c #291201",
"}  c #2B1401",
"|  c #291601",
" . c #2B1701",
".. c #2B1801",
"X. c #2D1901",
"o. c #3A1402",
"O. c #331901",
"+. c #351801",
"@. c #321C00",
"#. c #362102",
"$. c #3A2201",
"%. c #3A2202",
"&. c #3E2002",
"*. c #3C2401",
"=. c #4B0202",
"-. c #4D0202",
";. c #470803",
":. c #410D02",
">. c #4F0A03",
",. c #500202",
"<. c #550102",
"1. c #5A0101",
"2. c #5B0101",
"3. c #5F1303",
"4. c #6A0303",
"5. c #730202",
"6. c #7B0102",
"7. c #7D0101",
"8. c #7C0201",
"9. c #701A03",
"0. c #761903",
"q. c #7D1802",
"w. c #7F1C03",
"e. c #472302",
"r. c #422401",
"t. c #452502",
"y. c #482B02",
"u. c #4F2D02",
"i. c #522902",
"p. c #512D02",
"a. c #563102",
"s. c #622B02",
"d. c #693304",
"f. c #6C3904",
"g. c #8D0603",
"h. c #840F05",
"j. c #950303",
"k. c #9F0202",
"l. c #9A0405",
"z. c #801C03",
"x. c #971103",
"c. c #9A1007",
"v. c #A20202",
"b. c #A30202",
"n. c #B40503",
"m. c #B91002",
"M. c #BA1203",
"N. c #BF1403",
"B. c #8A2C03",
"V. c #813E05",
"C. c #BC3704",
"Z. c #C01502",
"A. c #C11603",
"S. c #CD2303",
"D. c #C12903",
"F. c #944105",
"G. c #9A4004",
"H. c #984506",
"J. c #954906",
"K. c #CC4B04",
"L. c #DB5708",
"P. c #D96809",
"I. c #DB6B09",
"U. c #E16106",
"Y. c #F16404",
"T. c #EF7509",
"R. c #F87B04",
"E. c #F27B0A",
"W. c #F1960E",
"Q. c #FAA108",
"!. c #FAA20E",
"~. c #FAB718",
"^. c #FCC309",
"/. c #FCC116",
"(. c #FBC71B",
"). c #FCE22A",
"_. c #FBED2A",
"`. c #FDF828",
"'. c #FEFF46",
/* pixels */
"                                                                                                    ",
"                                                                                                    ",
"                                                                                                    ",
"                                              * * *                                                 ",
"                                          * * r r 3 *                                               ",
"                                          * r B ,.E r *                                             ",
"                                        * r C 4.l.! z 3 *                                           ",
"                                        3 z E n.g.` T k 3                                           ",
"                                        r V ~ m.x.c.>.A k *                                         ",
"                                      * r L o.D.C.S.q.^ n *                                         ",
"                                      * G { e.K.R.Y.B.o.L i                                         ",
"                                      3 J @.d.U.^.Q.V.i.[ c *                                       ",
"                                      i I %.F.!.`./.L.u...n *                                       ",
"                                    & i ] *.H.~.'._.E.a...G *                                       ",
"                                      0 I #.V.W.).(.I.u...G *                                       ",
"                                      & G ..y.J.T.P.f.%.] i &                                       ",
"                                      & i ] O.e.s.i.&. .J 3                                         ",
"                                      * r V 3.z.9.z.0.:.k *                                         ",
"                                        3 B h.N.A.A.m.;.k * *                                       ",
"                                        * k =.k.v.v.j.C 3 *                                         ",
"                                        * r ' 6.6.6.5.k * *                                         ",
"                                          & E <.2.1.=.r *                                           ",
"                                          * Q ` ' _ ( x                                             ",
"                                            w N D N l *                                             ",
"                                                                                                    ",
"                                                                                                    ",
"                                                                                                    ",
"                                                                                                    "
};
