/* XPM */
static char *e[] = {
/* columns rows colors chars-per-pixel */
"50 50 217 2 ",
"   c #361414",
".  c #3B1111",
"X  c #3F1212",
"o  c #25201F",
"O  c #33201A",
"+  c #34211B",
"@  c #32221D",
"#  c #34221C",
"$  c #36231D",
"%  c #36241E",
"&  c #392018",
"*  c #38251F",
"=  c #202020",
"-  c #212020",
";  c #222020",
":  c #222222",
">  c #232323",
",  c #262323",
"<  c #272323",
"1  c #242424",
"2  c #252525",
"3  c #262626",
"4  c #272727",
"5  c #292422",
"6  c #2A2524",
"7  c #2A2624",
"8  c #2C2826",
"9  c #292929",
"0  c #2A2A2A",
"q  c #2F2929",
"w  c #2F2B29",
"e  c #2C2C2C",
"r  c #2D2D2D",
"t  c #2E2C2C",
"y  c gray18",
"u  c #2F2F2F",
"i  c #352520",
"p  c #352621",
"a  c #392620",
"s  c #392721",
"d  c #3A2721",
"f  c #372823",
"g  c #3A2822",
"h  c #3B2822",
"j  c #3C2A24",
"k  c #342A28",
"l  c #35302F",
"z  c #303030",
"x  c #313031",
"c  c #323232",
"v  c #333333",
"b  c #343434",
"n  c #353535",
"m  c #363636",
"M  c #373737",
"N  c #3A3534",
"B  c #3B3735",
"V  c #3B3737",
"C  c #3C3837",
"Z  c #383838",
"A  c #393939",
"S  c #3A3A3A",
"D  c #3B3B3B",
"F  c #3C3838",
"G  c #3C3C3C",
"H  c #3D3D3D",
"J  c #3E3E3E",
"K  c #3F3F3F",
"L  c #560202",
"P  c #5A0000",
"I  c #580202",
"U  c #5F0000",
"Y  c #510808",
"T  c #45140F",
"R  c #431616",
"E  c #4B1313",
"W  c #4D1515",
"Q  c #4F1717",
"!  c #4B1E1E",
"~  c #501717",
"^  c #501818",
"/  c #531A1A",
"(  c #630303",
")  c #640404",
"_  c #680000",
"`  c #6A0000",
"'  c #6F0000",
"]  c #770000",
"[  c #760101",
"{  c #790000",
"}  c #7B0000",
"|  c #6D1711",
" . c #41261C",
".. c #42271E",
"X. c #43281F",
"o. c #5A231F",
"O. c #432820",
"+. c #432921",
"@. c #4A2D23",
"#. c #44332C",
"$. c #533529",
"%. c #55362B",
"&. c #56382E",
"*. c #423131",
"=. c #443333",
"-. c #463535",
";. c #4D3131",
":. c #4F3232",
">. c #4B3535",
",. c #403B3A",
"<. c #443C39",
"1. c #433D3D",
"2. c #423F3E",
"3. c #443F3D",
"4. c #463E3C",
"5. c #4A3939",
"6. c #4B3E39",
"7. c #724634",
"8. c #704939",
"9. c #404040",
"0. c #414141",
"q. c #424242",
"w. c #434343",
"e. c #474343",
"r. c #454545",
"t. c #464646",
"y. c #4F4543",
"u. c #4B4645",
"i. c #4D4847",
"p. c #494949",
"a. c #4F4C4B",
"s. c gray31",
"d. c #524E4C",
"f. c #515151",
"g. c #555555",
"h. c #585858",
"j. c #72594E",
"k. c #7C5F52",
"l. c #7D6053",
"z. c #830000",
"x. c #840000",
"c. c #8C0000",
"v. c #850B08",
"b. c #830F0E",
"n. c #900000",
"m. c #940000",
"M. c #9A0000",
"N. c #9C0000",
"B. c #9D0000",
"V. c #921615",
"C. c #981715",
"Z. c #991D1B",
"A. c #A30000",
"S. c #A40000",
"D. c #A80000",
"F. c #A90000",
"G. c #AD0000",
"H. c #A10909",
"J. c #B00000",
"K. c #B20000",
"L. c #B30000",
"P. c #B50000",
"I. c #BA0000",
"U. c #BD0000",
"Y. c #BF0000",
"T. c #AD1E1D",
"R. c #863B2C",
"E. c #8C3D2D",
"W. c #CE0000",
"Q. c #CF0000",
"!. c #CF0303",
"~. c #D50000",
"^. c #DE0000",
"/. c #E00404",
"(. c #E30808",
"). c #E40B0B",
"_. c #E40C0B",
"`. c #E81312",
"'. c #E22321",
"]. c #F32624",
"[. c #F02B29",
"{. c #F72D2B",
"}. c #E0312E",
"|. c #EA3532",
" X c #F53835",
".X c #FF3C39",
"XX c #86543F",
"oX c #8C5841",
"OX c #945D45",
"+X c #91624D",
"@X c #97644E",
"#X c #896656",
"$X c #8E6B5A",
"%X c #916551",
"&X c #9A6C57",
"*X c #936E5D",
"=X c #B57356",
"-X c #BD795A",
";X c #A77A65",
":X c #AC7860",
">X c #AA7C67",
",X c #B0816B",
"<X c #BC876E",
"1X c #C28467",
"2X c #C68E73",
"3X c #C78F74",
"4X c #C78F75",
"5X c #CA8C73",
"6X c #C89076",
"7X c #CB937B",
"8X c #CE967F",
"9X c #CE9680",
"0X c #D59D8A",
"qX c #D69E8C",
"wX c #D79F8E",
"eX c #D8A392",
"rX c #DEB2A5",
/* pixels */
"t.t.t.t.t.t.t.0.e 1 = = z H S H S S H S 0.w.t.t.t.H H S K 0.t.t.0.r 1 = = 1 r r r c H K H D H H D H ",
"t.t.t.t.t.t.t.0.e 1 = = e H H H H H H H 0.w.t.t.t.S S H K 0.t.t.0.e 1 = = 9 r r z z D D D D D D D D ",
"t.t.t.t.t.t.t.0.e 1 = = u H H S H S S H 0.w.t.t.t.H S H K 0.t.t.0.r 1 = = 9 r r r z D D D H D K H D ",
"t.t.t.t.t.t.t.0.e 1 = = r H H D H H H S 0.w.t.t.t.H H S K 0.t.t.0.r 1 = = 1 r r z z D D H D D D D H ",
"t.t.t.t.t.t.t.0.e 1 = = r G G G D S S H 0.w.t.t.t.H H S K 0.t.t.0.r 1 = = 9 r r r c D D D D H D D K ",
"t.t.t.t.t.t.t.0.e 1 = = r G G G H H H S 0.w.t.t.t.S H H K 0.t.t.0.r 1 = = 1 r r z c D D H D D D D D ",
"t.t.t.t.t.t.t.0.e 1 o O % h d d p C H H 9.w.t.t.t.S D S K 0.t.t.0.r 1 = = 1 r r z b D D D D D D D H ",
"t.0.t.t.t.0.t.0.e 1 o & & & & & & N S H 9.w.t.w.w.D D D K 9.t.t.0.r 1 = = 9 z z z z D D D D D D D D ",
"K K K K K K K D 9 1 = & & & & O & C D K K K K K K v v z D K t.t.0.e 1 = = r b b M b c c c c c z z z ",
"K K D K K K D D 9 = = & & & oXoXoXo.W W W ~ ~ / Q E E E E ~ / / ! e 1 = = r D D D M z u u u z z r r ",
"K D D D D D D D 9 1 o & & & =X-X-X| P P P P P P P P P P P P P P Y r 1 = = r K D D b u r r r r r r r ",
"D D D K K D D D 9 1 = & & & =X-X-X| P P P P P P P P P P P P P P Y r 1 = = r D H D M u r r r r r r r ",
"r r r r z r z r 1 = = & & & R.E.E.v.x.x.m.N.N.[ P P [ N.M.H.T.T.Z.R X . = 9 r x r e 4 1 4 4 4 4 9 1 ",
"= = = = = = = = = = = & & & P P P N.G.G.Q.^.^.m.P P m.^.^.`..X.X}.P P L = = = = = = = = = = = = = = ",
"= = = = = = = = = = : & & & P P P N.G.G.Q.^.^.m.P P m.^.^.`..X.X}.P P L = = = = = = = = = = = = = = ",
"1 1 1 1 1 1 1 1 1 1 6 T T T [ } } G.I.W.L.G.G.M.c.c.G.^.^.).].].'.C.C.V.      1 1 4 1 1 1 1 1 1 1 1 ",
"e e e e e e e r e r q P P P F.G.G.~.^.^.x.P P S.^.^.^.^.^.^.^.^._..X.X XP P P k e e e e e e e e e r ",
"0.0.0.0.0.0.0.0.0.0.1.P P P S.G.G.~.^.^.x.P P S.^.^.^.^.^.^.^.^._..X.X XP P P 3.0.0.0.0.0.0.0.0.0.0.",
"t.t.t.t.t.t.t.e.>.>.;.' [ ' F.G.G.I.U.U.c.} } L.^.^.^.^.^.^.^.^._.{.{.[.b.b.b.>.>.>.r.t.t.t.t.t.t.t.",
"t.t.t.t.t.t.t.5.P P U G.G.F.G.G.G.` P P L.^.^.^.^.^.^.^.^.^.^.^.^.^.^.^..X.X.X( P P 5.t.t.t.t.t.t.t.",
"0.0.0.0.0.0.0.-.P P U G.G.G.G.G.G.` P P P.^.^.^.^.^.^.^.^.^.^.^.^.^.^.^..X.X.X) P P -.0.0.0.0.0.0.0.",
"K K K K K K K *.P P U A.A.A.A.A.A._ P P F.Q.Q.Q.W.W.W.Q.Q.Q.Q.Q.Q.Q.Q.!.|.|.|.( P P *.K K K K K 9.K ",
"D D H D H D H *.P P P P P P P P P P P P P P P P P P P P P P P P P P P P P P P P P P *.D K D K D D H ",
"H H D H D H D *.P P P P P P P P P P P P P P P P P P P P P P P P P P P P P P P P P P *.K D D D D H H ",
"D H D H D H D *.P P P P P P P P P P P P P P P P P P P P P P P P U P P P P P P P U U N H D H D D D H ",
"r e r r r r r q & & X.2X2X2X0XqXqX&.& & &X2X2X2X2X2X2X2X2X7XqXqXqXqXqXqXrXrXrX+.*   N D D D H H D D ",
"r r r r r r r q & & ..2X2X2X0XqXqX&.& & &X2X2X2X2X2X2X2X2X7XqXqXqXqXwXwXrXrXrX+.& & C H H D H D H D ",
"r r r r r r r q & & ..2X2X2X0XqXqX&.& & &X2X2X2X2X2X2X2X2X7XqXqXqXwXwXwXrXrXrX+.& & N D D H H H D H ",
"e 9 e 9 9 9 9 8 & & X.2X2X2X0XqXqX&.& & &X2X2Xk.<.<.l.2X2X2X6X6X,X4.4.y.rXrXrX+.& & l b b b b b b b ",
"1 3 1 3 3 3 3 7 & & X.2X2X2X0XqXqX&.& & &X2X2Xj.z z j.2X2X2X2X2X>Xz z D rXrXrX+.& & w t r r r r e e ",
"= = = = = = = o & & ..2X2X2XqXqXqX&.& & &X2X2Xj.z z j.2X2X2X2X2X>Xz z C rXrXrXX.& & o = = = = = = = ",
"= = = = = = = o *   ..2X2X2XqXqXqX&.& & &X2X2Xj.x c j.2X2X2X2X2X>Xz z C eXeXeXX.& & o = = = = = = = ",
"1 1 3 1 1 1 3 7 & & ..2X2X2X0X0XwX&.& & &X2X2Xj.z c j.5X2X2X2X2X>Xz z F qXqXqXX.& & 7 6 4 4 4 9 4 4 ",
"S S S S S S S N & & ..2X2X2X0X0X0X&.& & &X2X2Xj.z z j.2X2X2X2X2X>Xz x F qXqXqXX.& & 3.t.t.t.t.t.t.t.",
"0.w.w.0.w.0.3.G & & X.2X2X2X0XqXwX&.& & &X2X2X;X$X$X;X2X2X2X2X2X<X$X*X*XqXqXqXX.& & i.f.f.f.f.f.f.f.",
"t.t.t.t.t.t.t.3.& & ..2X2X2X0XqX0X&.& & &X2X2X2X2X2X2X2X2X2X2X2X2X2X2X2XqXqXqXX.& & d.h.h.h.h.h.h.h.",
"t.t.t.t.t.t.t.3.& & X.2X2X2X0XqXwX&.& & &X2X2X2X2X2X2X2X2X2X2X2X2X2X2X4XqXqX0XX.& & d.h.h.h.h.h.h.h.",
"s.s.s.s.s.s.s.u.& &  .2X2X2X8X8X8X%.& & @X1X1X1X1X1X1X1X1X:Xl.l.#X1X1X1X5X5X5X..& & u.s.s.s.s.s.s.s.",
"h.h.h.h.h.h.h.d.& & X.2X2X2X2X2X2X$.& & OX-X-X-X-X-X-X-X-X+Xz z 5.-X-X-X-X-X-X..& & 3.t.t.t.t.t.t.t.",
"h.h.h.h.h.h.h.d.& & X.2X2X2X2X2X2X$.& & OX-X-X-X-X-X-X-X-X+Xz z 6.-X-X-X-X-X-X..& & 1.t.t.t.t.t.t.t.",
"g.g.g.g.g.g.h.a.% @ % #X@X%X%X%X+X@.& & 7.oXXXoXoXoXoXoXoX8.k k #.oXoXoXoXoXoXh p f 3.w.t.w.t.w.t.w.",
"s.s.s.s.s.s.s.p.u 1 o & & & & & & & & & & & & & & & & & & & & & & & & & & & & r z b 9.0.w.w.w.w.0.0.",
"9.9.9.9.K K 9.S e 1 = O & & & & & & & & & & & & & & & & & & & & & & & & & & & r z z K K H H K K H H ",
"S H S H S H S A 4 > o O O $ % % % % % % % h h h h % % % % h j j h % O O O O % r r b D D D H D H H D ",
"H H S H S H H A 9 > = = 3 r r r r r r r v Z K S S r r r b S t.t.0.r 1 o = 4 e r z z D D H D D H D H ",
"H S S H H H S A 9 > = = 3 r r r r r r r b Z S K S u r r b S t.t.0.r 1 = = 4 r r z z A D D H H D D H ",
"S H H S H S S A 9 > = = 3 r r r r r r r b Z S S S r r r b S t.t.0.e 1 = = 4 r r z z D H D D D D H D ",
"H S H H S H H A 9 > = o 4 r r r r r r r v Z K S K r r r b S t.t.0.e 1 = = 4 r e z c A D H H D H D D ",
"H S S H S S H A e > = = 3 e r r r r r r b Z S H S u e e b S t.t.0.e 1 = = 4 r r u z H H D H H D D H ",
"S H H H H H S A 4 > = = 3 u r e r r r r b Z S H H r e u b S t.t.0.e 1 = = 4 r r u b D D D D D H H D "
};
