/* XPM */
static char *exit[] = {
/* columns rows colors chars-per-pixel */
"50 50 126 2 ",
"   c #010201",
".  c #010C02",
"X  c #011304",
"o  c #021B05",
"O  c #011508",
"+  c #031D09",
"@  c #022206",
"#  c #022907",
"$  c #03240A",
"%  c #09240E",
"&  c #042B0B",
"*  c #082D0E",
"=  c #05320D",
"-  c #08330E",
";  c #063B0E",
":  c #083A0E",
">  c #022610",
",  c #042B11",
"<  c #0A2D10",
"1  c #063412",
"2  c #093511",
"3  c #063B12",
"4  c #093C13",
"5  c #05351B",
"6  c #08341A",
"7  c #0A3F18",
"8  c #093C22",
"9  c #06410E",
"0  c #09420F",
"q  c #064412",
"w  c #0A4314",
"e  c #074A15",
"r  c #0A4A15",
"t  c #07421C",
"y  c #0B4419",
"u  c #07491B",
"i  c #0C4C1A",
"p  c #104D1D",
"a  c #095216",
"s  c #0B5B17",
"d  c #0C531C",
"f  c #075818",
"g  c #0C5B1C",
"h  c #11521C",
"j  c #105E1F",
"k  c #0D621E",
"l  c #10631E",
"z  c #074424",
"x  c #0A4423",
"c  c #0C4D21",
"v  c #0D4729",
"b  c #074928",
"n  c #0C492C",
"m  c #114D21",
"M  c #055124",
"N  c #0D5422",
"B  c #0E5C22",
"V  c #0F5028",
"C  c #0D5B2A",
"Z  c #115523",
"A  c #115B23",
"S  c #115B2A",
"D  c #134E32",
"F  c #095F30",
"G  c #105131",
"H  c #185E34",
"J  c #1C5D3F",
"K  c #0E6423",
"L  c #0D6A25",
"P  c #0E642A",
"I  c #0F6B29",
"U  c #116324",
"Y  c #116C26",
"T  c #11642A",
"R  c #136B2C",
"E  c #0F7224",
"W  c #0F702B",
"Q  c #127327",
"!  c #12732C",
"~  c #18762F",
"^  c #137A2E",
"/  c #0C6334",
"(  c #146631",
")  c #136C33",
"_  c #106938",
"`  c #0D7332",
"'  c #147432",
"]  c #197433",
"[  c #147B34",
"{  c #187B37",
"}  c #15753B",
"|  c #1A753A",
" . c #167D39",
".. c #197C3B",
"X. c #177043",
"o. c #1A7545",
"O. c #1B7C41",
"+. c #21784D",
"@. c #257857",
"#. c #138133",
"$. c #188135",
"%. c #158934",
"&. c #16823B",
"*. c #1A843D",
"=. c #168A3F",
"-. c #1A893F",
";. c #168540",
":. c #1C8541",
">. c #1B8B44",
",. c #1D864D",
"<. c #1E8D49",
"1. c #1F9A52",
"2. c #21914E",
"3. c #228D56",
"4. c #358261",
"5. c #388E6C",
"6. c #2F9960",
"7. c #459B78",
"8. c #489D7C",
"9. c #48B27E",
"0. c #5DB290",
"q. c #61B796",
"w. c #69C09C",
"e. c #6FCAA7",
"r. c #73C5A4",
"t. c #89DEBC",
/* pixels */
"2 X 0 Y X       . 7 l o & B _ 4.F B $ 5 o.o.X.C ; o     . . .   . & K k l o X y 3 e = 4 i i o 1 R i ",
"= X Z ] X       . T ..o & #.6.t.X.u & z r.7.w.` e + .             r #.; Q @ + *.T s r $ >.2.o & :.y ",
"2 . & i .       . w : X 1 ` 9.e.,.P & D r.@.8.C u o .           . $ ~ = R X + | d g # , *.' o X h @ ",
"o . X - .         o & . + 1 F z z t $ 5 8 8 5 u ` o             . 3 k * O . X & = L &.=.f r X X = @ ",
".   o # .         < Z X X o q $ & = o X O O $ d ..+               & Y @ . . + > N I <.1.' d X @ ! r ",
". . $ A .       . $ $ .   X 2 X & e o .   . X & A O             . & k 2 X O > D C B Z U a & X $ r q ",
"o . $ ) .       . h :.X   X * . * [ X       . t r .             . $ %.q g $ > 4.b > o * r w X i [ ! ",
"X   o T .       . : T . . . * . # P X       . * w .             . 3 g d w + < @.b , + 1 & $ X w q T ",
": . . $         . i c X . X X . + s o       . 7 Z X             . & T & w $ $ n M K d U 0 i X $ Q K ",
"-               . N S X + d - X : a X       . i | X             . = >.g r $ + $ t *.[ U g p X 5 U ! ",
"+               . @ p X X @ X X 4 Y o .     X d g X         . . . r [ g ~ o X X 5 ^ w ~ ! q X 7 j g ",
".                 X o X 1 $.N X = ; $ .     . $ $ .       X & * X & ^ Q s @ . . & ! = X X X X = [ Y ",
"                    . . * [ : X : w & .     . o o .       O = 4 X o ' U r X . . # ' X . .   . * { i ",
"2 . + X .           .   o g + X & 3 # X     . & & .       X $ = # # a 3 4 X   . : g $ . X o X * N # ",
"h X S U .         . . . $ :.2 . o [ # o     . R r X       X I &.; q -.: X .   . i L 4 X e N X . X K ",
"* . < h .         X . . X d $ . * P & @ .   . w R .     . o E k = 4 [ $       . = l o o $.' X . X K ",
"=   . . .         X $ . $ d : X u [ q P .   X S ' X .   . o K r = u #.4       . 1  .* X o $ .   . 6 ",
"y .   .         . * Z . & r * X U ! g ) X   X O.>.X .   X $ a # = C #.q X     . q =.= . . . .   X 7 ",
"* X X X .       . o $ X X p + X r K 9 Z .   . d B X     . @ Y s 3 q B # o . . X a E : X & $ . O $ $ ",
"y X g U X       X R ..X $ ..= X o & ..i .   . o o .     X X i g  .k L E K o   . & %.o o ;.>.o 7 ] i ",
": X j & .       . : U X $ -.- . o & :.i X   . o o .   . o & 3 q Q q U k - X . . q g : X 2...o 4 :.0 ",
": . # : X       . w ~ X + q 4 . # = d # .   X N a X . o o * l Q ^ l = = 0 X   . 1 r $ X 2 4 X 2 ~ g ",
"i . 2 R .       . Z j X + U C X = L k d .   X ) g X o @ X o K L *.~ *.= U X   . i g $ . . . . 2 s * ",
"@ X i | X       . U w X + U 4 . & ; [ P .   X i q X X # X X = k Y : s - * X   . @ [ # . X X X $ R U ",
"& . $ = X         o o X # K = X & s I B X   . : ! X o Q @ o j Q ^  .*.T q X   . y [ 4 X = ' o 7 ' T ",
"& . o o         . $ & X & $.# X r f ' d .   . ] : X & Y = X T a &.| <.&.R X . . m [ = o a &.$ z &.) ",
"o . @ o           $ 4 . o d = X ; R f = X   . i w X @ & $ . & q s q U * 2 X   . o s o X q k & z 3./ ",
"4 X A B X         X X X $ ;.w X ; a [ Y X   . B j X o j & . . @ *.Q k 7 . .   . & ..* o Q l $ 5 5.0.",
": . 7 d .         X X . ; #.w X = a &.I X   . N q X o d $ . X # >.K a o       . , $.o X U & $ 5 5.q.",
"N X - g X       . y N X = &.y X 3 B L T . . X A U o @ = o X ; K 0 # r * .     . $ r # X o $ $ , n J ",
"( . & ! X       . i g X = [ u X 1 I ~ T .   X ' e o o & + X d B r 0 0 * .     . ; ^ $ . . . O O + + ",
"y X r *.o       . r K X & [ y X = I K d .   X r U X @ q = = R q r = R 6       X i ' 3 o $ o O .     ",
"+ X B >.o       . S ' X & [ N X } <.W e .   X K K @ 1 >.K *.# o U q : + .     . p Z o @ $.| X       ",
"@ X i U X       . N r X $ K y o O.&.&.= X   X L e o $ Q Q ; o X ] @ A X       O r $ X + f B X       ",
"$ X d K .       . & : . $ T & X i I L K X   X = r X o I : 4 X o ! : = + .     . r ^ * X 2 4 .       ",
"2 . Z ( X       . h < . X e + X R ' ' T .   . B d X 1 ' $ . X X T w r * .     . * g 7 . . . .       ",
"* . $ i X       . p * . X 7 X X i ; K C .   . h - X * :.& . X X U : T * .     . @ ..& . . .         ",
"1 . : g X         X . . X $ X . 7 A R 7 .   X C d o 1 ;.y X 7 d U y A * .       + = o X $ * .       ",
"o . & R X               o i * X N 4 C 1 .   . T r o 3 Q 4 O C = @ $ R o       . o # X o s B .       ",
"& . = j X               X # o . y y y & .   . * 4 @ & Y & X d i h a h $ .     . * a # $ ' U @ X     ",
"$ . c i .               o m & . + - j i .     . o A d & o X + X X w p 2 .     . 3  .i A Y ^ K y .   ",
"$ . 7 i .               o 7 + . + # A r .   . + & p o $ X . X . . 2 w %       . i g Z - i a g + .   ",
"4 . * w X               $ d @ . + @ p = .   . Z B + + 2 & . o o 4 * < .       . 1 q = * d K Y w .   ",
"S O S ) X               4 : X   . X h : .   X ] | X + A y . 2 w U * O .       O y d & o O.,.} c .   ",
"7 . 2 4 .             . 2 i $ . 2 2 y % .   X A T X X 4 7 X $ # m 4 X X         + i o X T ) T y .   ",
"c . V _ .               % T * . X o $ X .   . y ( . + d 4 * r K B a ' o       . X - X . 1 & r $ .   ",
"Z . H ) X               + | X . % 2 $ o     . y N . X A $ $ r T R : B $ .       . $ . . - r | $     ",
"& . 2 y .               . $ +     o A w .   . 7 i X o S & + d r = = d +         . = . . X o 4 - .   ",
"& . Z ( X               . i X     o I y .   . N C X 1 ( 5 X A = T s ' $         . .   . * * i 2     ",
"$ . 4 - .               . % .     X B * .   X N i X $ A $ X = K d # d o .         . . . & 1 T o .   "
};
