/* XPM */
static char *mur[] = {
/* columns rows colors chars-per-pixel */
"50 35 44 1 ",
"  c #000000",
". c #010101",
"X c #020202",
"o c #030303",
"O c #040404",
"+ c #050505",
"@ c #060606",
"# c #070707",
"$ c #080808",
"% c #090909",
"& c #0A0A0A",
"* c #0B0B0B",
"= c #0C0C0C",
"- c #0D0D0D",
"; c #0E0E0E",
": c #0F0F0F",
"> c #101010",
", c #111111",
"< c #121212",
"1 c #141414",
"2 c #151515",
"3 c #161616",
"4 c #181818",
"5 c #191919",
"6 c #1A1A1A",
"7 c #1B1B1B",
"8 c #1C1C1C",
"9 c #1D1D1D",
"0 c #202020",
"q c #212121",
"w c #222222",
"e c #242424",
"r c #272727",
"t c #2A2A2A",
"y c #2E2E2E",
"u c #313131",
"i c #353535",
"p c #383838",
"a c #3F3F3F",
"s c #414141",
"d c #4B4B4B",
"f c #4C4C4C",
"g c #4D4D4D",
"h c #595959",
/* pixels */
"XXXOXXX%XuXXXXXXXX%XXXXXXXXXXXXXXXXXXXXXXXXXXXXXXX",
"X:XXXXXXXXX%XX:XX2XXXXXXXXXXXXXXXXXXOXXXXXXXXXXXX:",
"XXXXOOXXOXXXXXXXXXXXXXXXXXXX%:XOXXXXXXXX:eXXXXXXXX",
"XXXXXXXXXXXXXXXX:XXX%XXXXXXXXXXX%XXXXXXX%yOOXXXXXX",
"XXXXXXXXXXXXXX5eXXXXXXOXXXXXXXXXXXXXXXXXXXXXX:XXOX",
"XXXXXXXXXXXXXX<2XXXXXXXXXOXXXXXXXXXXXXXXXXXXXXXXXX",
"X:XXXXXXXXXXXXXXXXXXXXXXXXXXXXXXX%XXXXXXXXXOXXXXXX",
"XXXXX2XXXXXXXXXXOXXXXXXXXO:XOXXXXXXXXXXXXXXXXXdXXX",
"XXXXXXX%X%XXOXXXXXOXXXXXXO%XXXXOXXOXXXXXXXXXXX5XXX",
"XXXXXXXXXXXXXXXXXXXXXXXXXXXXXXXXOXOXXXXXXdXOXXXXXX",
"XXXXXXOXOX%XXXXXXXOXXXXXXXXXXXXX9%XXXXXXXXXXXXX<XX",
"OXXXXXXXXOXOXXXOXXXXXXXXXXXXXXXXXXXXX%XXXXXXXXXXXX",
"XXXXXXXXXXXXXXOOXXX5XXXXXXXXXXOXXXXXXXOXXXXXXXXXXX",
"XXXXXXXXXXXXXXXXXXXX:XXXXXXXXXXXXXXXXXXXXXXX5XXXXX",
"XXe<XXXhXXXXXXXXXXXXXXXXXXXXOXXX%XXXXXXXXXXXXX%XXX",
"XXXXXXX:XXXXXXXXXXXXXXXXOXXXXXXXXXXXXXXXXXXXXXXXXX",
"XXXXXXXXXXXXXXXXXXXXXXXXXXXXa9XXXXXX<XXXXXXXXXXXXX",
"XXXXXXXXXXXXX%XOXXXXXXXXXXXXXXXXXXXXXXXXXXXOXXXXX%",
"XXXXXXXXXXXXXXXXXXXXXXXXX2XXXXXXXXXXXXXXXX:XXXXXXO",
"XXXXXXXX:XXXXXXtXX%XXXXXXXXXXXXXXXOXXXXXXXXXXXXXXX",
"X%XXXXXXXXXXXXXXXXXXXXXXXXXXX9OOXXX%XXOXXXXXXXOXXX",
"XXXXXXXXXXXXXX%XXXXXXXXXXXXXXXXXXXXXXO5XXXXOXX5%OX",
"XXXXX%XOXXXXXXXXOXXX:XXXOX%X%XXXXXXXXOXXXXXXXXXXXX",
"XXXXXXXXXXXXXXXOXXXXiXXXXXXXXXXXXXXXXXXXXXXXXXXXXX",
"XXXXXXXXXXXXXXXXXXXXXXXXXXXXX5XXXXXXXXXXXXaXXXX%XX",
"XXXXXXXXXXXXXXXXXXXXXXXXXXXXX5XXXX:XXXXXXX:XXXXXXX",
"%OOXXXXXXXX%XXXXOXXXXXXXXXXXXXXXXXXXXXXXXXXXXXXXXX",
"iXXXXXXXXXXOXXXXXXXXXXXXOXX%%XXXXXXXXXXXOXXXXXXXXO",
"XXXXXXX:XXXXXXXXXXXXOOXXXXXXXXXXXXXXXXXXXX<XXX%<0X",
"XXXXXXXOXXXXXXXXXXXXXXXXXXXXXXXXX5XXXXXXXXOXXXXXXX",
"XXXXXXXXXXXXXXXXXXXXXXXXXXXXXXXXXXXXXXXXXXXXXXXXXX",
"XXXXXXXXXXXXXXXXXXXOOXXX5XXXXXXXXXXXX:XXXXXXXXXXXX",
"XXXXXXXXXXXXXXXXXXXXXXXXXOXXXXXXXXXXXXXXXXXXXOX%XX",
"XXXXXOXXXXOg2XXXXXXXXXXXOXXXXXXX:XXXXOXXXXXXOXXXXX",
"OXXXXXXXXOXOXXXXXXOXXXXXXXXXXXXXXXOXXXXXXXXXXXXXXX"
};
