/* XPM */
static char *m[] = {
/* columns rows colors chars-per-pixel */
"50 50 46 1 ",
"  c #372619",
". c #38271A",
"X c #3C2A1C",
"o c #402E1F",
"O c #422E20",
"+ c #453121",
"@ c #4C3526",
"# c #4D3826",
"$ c #4F3828",
"% c #523A29",
"& c #583F2D",
"* c #57402C",
"= c #59422E",
"- c #5E4331",
"; c #634734",
": c #664936",
"> c #694E37",
", c #6E4E3A",
"< c #6C5039",
"1 c #72543D",
"2 c #75593E",
"3 c #765540",
"4 c #785641",
"5 c #7B5B43",
"6 c #7F6045",
"7 c #815E46",
"8 c #835F48",
"9 c #826146",
"0 c #866249",
"q c #8A644C",
"w c #8E694E",
"e c #916C4F",
"r c #8F6A50",
"t c #936B52",
"y c #986F55",
"u c #977053",
"i c #9B7256",
"p c #9E7559",
"a c #A07757",
"s c #A07857",
"d c #A0775A",
"f c #A47A5B",
"g c #A97E5D",
"h c #AD825F",
"j c #AF8360",
"k c #B08460",
/* pixels */
"                                            ....  ",
"  XXXXXXooXXXoooXoXXXoXooXoXXXXooooo ooo.oo.XXX.  ",
"   XoX++++++++++++++OOO+OO+O+OOOo+++oo++++ooXXXX  ",
" XX<25ruisfssfgssiuuyyypffayyyyiiddiyyyyyytt62<X..",
" XX269ipfghhjgjjkgfddddggggddddgggggddddddpu962X. ",
" Xo69quiifgggggggsdapppfggdpppipdggfippdpyie994XX ",
" X+euu66qtyttyttuetttytyyyttttttyyyyttttrq70qq9OX.",
" X+upp6678qqqqqqqqqq8q8qqqqqqqqqqq8qq8qq8759ww0OX.",
" X+idp0663<,<3,,,,,,,,,<,,,,,,,3,,,,,,,,1788tq8OX ",
" Xohjpr03*@@@@@@$@@@$@@@@@@@@@@@@@##@@@@-7yyttqOX ",
" X+hjftq3@  ...XX  XX X..XXX..   XXXoXX $4pdtt8+X ",
" Xoujftq>@.@=;--&-;;;:;-&&-;&$.O%111>-@X%8fdtt8OX ",
" X+uhitq,@.&>4<<>1344441><143&.@;eeq01-X%7ggtt8OX ",
" X+upirq3@X;4r0559qrtwt9520r7:.&,kggf0, %8ggyt8+X ",
" X+uhhrq>@.;4t882wtitte922<;:>38rggggr,o$7asyt8OX ",
" X+hhprq,@.;4t855wtpttt962:$&>etyggggw,o@7aayy8OX.",
" o+sggyq,@X;4e962eipytr854= @>khgfgggy3X$4pptt8OX ",
" o+sggyq,@X:7uq969rittq1&&>29egggdddp8:X$4idtt8+X ",
" o@dggy8,$X>0pq96qwutrr>@@>euifffdppy5:X$4iptr0OX ",
" o@gggyq,@X<0fe0200rrrr;Xo1kkgffddpyt4:X$4ppyt0OX ",
" ooigdtq,@X:7t87560r3:-,27qdaafdpyq4-%@ &5dfyt8OX ",
" .+yddtq,@X:7t8769wr:%+1yiytyydpyt53OOX &8ggtt0OX ",
" o+tdptq,@X;4r7766qr-+X2fkdrtyfpit3:X.  %9ggyt8OX ",
" o+yddt8,@X;5q872>>-<13efgfiyyyq5;;::&$.%8ggyt0OX ",
" X+tfit8,@o;7q772&@o7yggfffddyt7>X$;w3-X%8ggyt8OX ",
" X+tfdyq,@ ;7q772&@o7pggffdfiy83>.$;r4;.%8ggyt8OX ",
" XOagdy8,@o;1t,,&:,,qdggggdyt8:;=*>3r4;X%8pfttqOX ",
" o+fggyq,@ ;7q;$ 5yggfdgkkdr7: @*569r5;X%4pptt8OO ",
" o+dggt8,@o-,8:&@9uhfddfggy84:+%=669y4;X$7yptt8O. ",
" o+pggyq,@ @->>><eigppppdd8::;-:>569y7: %4ppttqO. ",
" .+ydpy8,@ o  2ekggsyttqtq: +-tq058qdq,X%4yptt8OO ",
" o+ydpyq,@ o@%7egffsttt874:@&:rq040qp8, %7pdttqO. ",
" ooydptq3+ $-,qtddddyyq7,::-:3rr850qi7>X$5sfye8+X ",
" .Oydptq3@X,tgsytypdytt-XX-trrr88559t4;X%7ggye8OX ",
" XOydprq:@.3tgattyyp873-@@,qrttwq599w4; %7ffyt8+X ",
" oOydptq3+.3wgayqyyy7,:-&&3tttytq269t4;X%7ffyt8+X ",
" XOyfptq,@X,0fyytrrt;O &350rtydye269r5;X%4ydtt8OX ",
" oOydptq,@ ;10774544%O $:>1455882<<14>*.%4pptt8OX ",
" XOydptq,@.%-,:;;;;;@o @%&;:::,>:*==;&@.%4pptt8+X ",
" XOydptq,@ ...XX XX    XX   X XXX.X.XX. %5ypyt8+X ",
".Xoufiw03-%$$$%%%%%@%@$%%%%%%&%&%$%%%%$$;7uutr0OX ",
".X+upi0985545577777247545279999585444455580qww0OX ",
" X+upi958tiiiidfgdpyiypiiisggfgfdiiippiitq56qr0OX ",
".X+wuu99qyddppfggfdpdppdpdsghhggfppppppdyq770q8OX ",
" Xo5000qqttttttyytytttyttttyyyyyyttttytttwq0892oX ",
" .o377qwrrtttttttytttrtttttttttrtrttrtrtrtwq562XX ",
".XX<1488880q80808888888q000800008qq88q8q880722<XX ",
" .XXoo+O++OOOOOO+++OO+OOOOOOOOOoOOOOOOOOOO++XoXX  ",
"  ..XXXXXXXXXXXXXXXXXXXXXXXXXXXXXXXXXXXXXXXXXX    ",
"                                                  "
};
