/* XPM */
static char *p[] = {
/* columns rows colors chars-per-pixel */
"50 50 235 2 ",
"   c #26211E",
".  c #37271C",
"X  c #221E24",
"o  c #251C2C",
"O  c #2C1C24",
"+  c #271931",
"@  c #2D1A3B",
"#  c #291935",
"$  c #341B3C",
"%  c #351E2B",
"&  c #222222",
"*  c #2D2D2D",
"=  c #282429",
"-  c #2D2433",
";  c #2E2A32",
":  c #2F2139",
">  c #32243C",
",  c #342B3A",
"<  c #322934",
"1  c #333333",
"2  c #3A343E",
"3  c #3C3C3C",
"4  c #3B3635",
"5  c #392C27",
"6  c #481E11",
"7  c #461F14",
"8  c #5C2818",
"9  c #513715",
"0  c #71301A",
"q  c #6B2D18",
"w  c #461A30",
"e  c #49322B",
"r  c #473A38",
"t  c #532D2C",
"y  c #753825",
"u  c #6F322F",
"i  c #754E0E",
"p  c #46403E",
"a  c #5E4639",
"s  c #644238",
"d  c #6B422C",
"f  c #2F0F46",
"g  c #320E4A",
"h  c #2F1243",
"j  c #321445",
"k  c #331B44",
"l  c #321249",
"z  c #3A1E4C",
"x  c #36194A",
"c  c #360F53",
"v  c #3B1256",
"b  c #3D115B",
"n  c #391552",
"m  c #352242",
"M  c #3A2C44",
"N  c #3D2A4B",
"B  c #3A2648",
"V  c #3C3343",
"C  c #3E3148",
"Z  c #3E3A42",
"A  c #3E2252",
"S  c #441B4B",
"D  c #451A5B",
"F  c #551D56",
"G  c #413B45",
"H  c #433A49",
"J  c #452959",
"K  c #592758",
"L  c #4A3856",
"P  c #503054",
"I  c #782E42",
"U  c #6E3150",
"Y  c #421362",
"T  c #461369",
"R  c #49156D",
"E  c #4C1A6D",
"W  c #441D61",
"Q  c #531D6D",
"!  c #4D1574",
"~  c #4E1973",
"^  c #501777",
"/  c #511A75",
"(  c #53177B",
")  c #52197B",
"_  c #4F216E",
"`  c #4A2662",
"'  c #572669",
"]  c #543167",
"[  c #552675",
"{  c #5B3772",
"}  c #623C7B",
"|  c #6E2C6F",
" . c #601F67",
".. c #454445",
"X. c #4E4E4E",
"o. c #494346",
"O. c #514A55",
"+. c #545353",
"@. c #585858",
"#. c #58525B",
"$. c #4F4653",
"%. c #7A4E49",
"&. c #5C4B67",
"*. c #625B65",
"=. c #6A4D74",
"-. c #686667",
";. c #756C73",
":. c #7A7679",
">. c #86381E",
",. c #87372F",
"<. c #926315",
"1. c #AA7614",
"2. c #974A31",
"3. c #87502C",
"4. c #A44525",
"5. c #A64836",
"6. c #A95739",
"7. c #B45A3A",
"8. c #9C682F",
"9. c #956522",
"0. c #D65A31",
"q. c #C15034",
"w. c #803B64",
"e. c #8E564E",
"r. c #B06C4F",
"t. c #97526F",
"y. c #8E7972",
"u. c #AE7571",
"i. c #A15E4A",
"p. c #CB6A46",
"a. c #D56B45",
"s. c #D77752",
"d. c #CA7557",
"f. c #E77C54",
"g. c #E47249",
"h. c #C37F73",
"j. c #BC8736",
"k. c #DAA63D",
"l. c #C38817",
"z. c #B98B79",
"x. c #928073",
"c. c #CA9958",
"v. c #E98159",
"b. c #CE8E72",
"n. c #E89677",
"m. c #DBA162",
"M. c #571981",
"N. c #5A1A85",
"B. c #5E1A8B",
"V. c #611B8E",
"C. c #621C93",
"Z. c #691D9D",
"A. c #661D99",
"S. c #65248B",
"D. c #742887",
"F. c #663985",
"G. c #6A219B",
"H. c #6B2797",
"J. c #742599",
"K. c #6B3490",
"L. c #73359B",
"P. c #793D85",
"I. c #6D1EA3",
"U. c #701FA7",
"Y. c #6E22A3",
"T. c #7421AC",
"R. c #7727A6",
"E. c #7D3BA9",
"W. c #7721B2",
"Q. c #7A23B4",
"!. c #7D24BA",
"~. c #7D2FB0",
"^. c #7E32B1",
"/. c #5F2088",
"(. c #724B8B",
"). c #7C6C84",
"_. c #8B399C",
"`. c #85388A",
"'. c #833AAB",
"]. c #8025BE",
"[. c #832ABD",
"{. c #8128B2",
"}. c #8834B2",
"|. c #944784",
" X c #954D93",
".X c #A45796",
"XX c #A2578C",
"oX c #9C47B5",
"OX c #8B4CAD",
"+X c #A24BB0",
"@X c #B869B6",
"#X c #9A7684",
"$X c #C57BA0",
"%X c #8426C3",
"&X c #8529C4",
"*X c #8A2ACA",
"=X c #882BC8",
"-X c #8B36C4",
";X c #912DD4",
":X c #9531D9",
">X c #993BD8",
",X c #9234CC",
"<X c #9A46C4",
"1X c #9A58C7",
"2X c #9D44D8",
"3X c #964BC9",
"4X c #A751D2",
"5X c #9C63C3",
"6X c #A562D3",
"7X c #A751E1",
"8X c #AD60E2",
"9X c #888687",
"0X c #928B8C",
"qX c #999595",
"wX c #948B96",
"eX c #AB958E",
"rX c #AFA39C",
"tX c #B7B4B4",
"yX c #ADAAAA",
"uX c #CB948E",
"iX c #DDAC9A",
"pX c #D1A696",
"aX c #E9AB92",
"sX c #C0BEBE",
"dX c #ECBAA6",
"fX c #F4C7B5",
"gX c #C6BDC5",
"hX c #D5D3D3",
"jX c #DCD9D9",
"kX c #CAC6C6",
"lX c #E1DEDE",
"zX c #E6E5E5",
"xX c #F5F5F5",
"cX c #F3EFEE",
"vX c #DEDAE1",
/* pixels */
"3 3 3 3 3 3 3 3 1 * * * = & & & * G ......Z 3 3 3 ........3 3 3 3 3 3 3 3 * & & X * 3 ..X.......X...",
"3 3 3 3 3 3 3 3 1 1 * * = X + - : M C C M M M V 2 ..X.......3 3 3 3 3 3 3 * & & & & ................",
"3 3 3 3 3 3 3 4 * * * * - + f h f l x l x l l m 2 ........3 3 3 3 3 3 3 3 * & & & * ................",
"3 3 3 3 3 3 3 2 k k k h e u <.e.E.OX1X5X5X5X5XF.J B C ......3 3 3 3 3 3 3 * & & & * ......X.......X.",
"3 3 3 3 3 2 2 M D Y Y Y K %.8.t.oX1X3XOX6X6X6XOXF.&.L Z ..G 3 3 3 3 3 3 3 & &   & * 3 ......X.......",
"3 3 3 3 2 M m n C.A.Z.Z.J._..X+X2X3X3XL.E.OX7X2X1XE.F.B M V 3 3 3 3 3 3 3 & X & & * ................",
"3 3 3 3 V m x v N.N.N.N.V.S.H.H.Y.H.C./ (. XuX@X6X3XE.K.] L M 2 3 3 3 3 3 * X X & * ....X.......X...",
"3 3 3 3 2 k l c ~ R / ~ ~ / ( M.N.N.M.~ P. XuX@X6X2X3X^.F.[ A V 3 3 3 1 3 * & & & * ................",
"* 1 1 1 , k l l k m m > j h g b ( B.C.J.+X.XuX@X2X>X>X7X-X}.H.J N m 1 1 1 = X X & = 3 3 3 ..3 ..3 ..",
"* * * * ; : k k , , 2 2 $ @ g T Z.T.!.=X}.oX4X+X+XoX<X2X,X,X-XS.E D z - ; = & & & * 3 3 3 3 3 3 3 3 ",
"* * * * ; : @ m 1 3 3 3 , # g R Q.].*X:X>X>X2XoXXX.X}.>X>X>X2XR.V.~ z $ ; = X & & * 3 2 3 3 3 3 3 3 ",
"* * * * * * * * 1 3 2 V k @ c Q `._.}.;X;X:X;X|.i.r.XX2X>X;X;XoXoX X' g k @ o o = - , 2 V 3 3 3 3 3 ",
"* = & & & = & & * ; ; m x c b ] e.t.t.%X%X%X%X'.|.|._.-X&X&X&X.X#X#X| Y v n f l l k z A B ; ; * * * ",
"& & & & & & & X & X + g v b T U 9.8.e.Q.W.W.W.W.W.W.W.W.W.W.Q.u.c.c.t.T Y Y Y Y Y Y Y b x # o & & & ",
"& & & & & & X & X X + c b Y T R Q ~ ( ( ( ^ ^ ^ ! ^ ) ^ ^ ! ) _ ~ _ R ! C.Y.W.W.W.W.W.T.B.b h o & & ",
"& & & & & o + + + h x N.M.^ R ) C.A.J.L.L.L.L.L.L.L.H.A.G.G.G.A.C.B.C.C.B.C.C.C.C.C.C.N.~ n @ = & & ",
"* * * * - k g g g Y ^ :X!.Y.R C.*X>X2X8X8X8X8X8X8X7X2X:X:X:X:X*X%X%X].].B.R l g g g g g k ; * * * * ",
"3 Z V l n M.Z.Y.Y.T.W.%X&X&X[.Y.^ E E / _ ' Q _ _ _ ! T R R R T T T ^ M.T b l S C Z H C H ....3 ..3 ",
"....Z A W M.A.Y.I.I.Y.Y.T.T.Q.H.D J J { ] K F F S A ] =.] J n K K K F Y D n l G ..o.................",
"........Z A v b b b b b b b Y W $.-.).kXuXh.q.,.8 u 9XvXqX;.e i.p.d.u 7 e H G o.....................",
"......3 Z C N N B N N N N L N C O.*.:.yXeXb.a.7.5.r.pXcXrXy.a i.d.s.d 7 e r ....o.....3 ....3 ......",
"Z 3 ..3 3 Z V V C Z H C Z L $.$.O.@.;.rXeXb.f.a.p.d.iXcXrXy.d r.s.s.2.8 e r ..........3 3 3 ..3 3 3 ",
"3 3 3 3 3 3 3 3 ............o.Z N L $.-.y.y.eXb.v.v.n.dXb.c.r.s.v.v.c.r.e.d e r ....3 3 3 3 3 3 3 3 ",
"3 3 3 3 3 3 3 3 ....X.......C N _ [ { =.=.y.y.b.b.aXdXfXiXuXb.n.n.n.u.u.%.a e r ....3 3 3 3 3 3 3 3 ",
"3 3 3 3 3 3 3 3 ........Z C B ` N.B./.F.=.=.-.eXpXdXfXfXdXiXpXiXiXiXeXy.%.X.e ..p ..3 3 3 3 3 3 3 3 ",
"3 3 3 3 3 3 3 3 3 3 2 M A W M.C.&X&X%XW.L.K.} ).wXyXsXhXhXhXhXlXjXhXx.+.H r : - * * * * * * * * * * ",
"3 3 3 3 3 3 3 3 3 2 V k b ~ G.W.*X*X!.Y.G.G.K.(.).0XyXhXjXlXlXzXzXjX9X+.L H j < 1 * * * * * * * * 1 ",
"3 3 3 3 3 3 3 3 3 2 M g ~ B.].*X:X*X%XC.I.I.T.(.&.-.0XkXjXzXxXxXxXzX9X+.L J c $ ; * * * * * * * * * ",
"1 1 1 * 1 1 1 1 1 1 : l T N.!.%X;X%XY.v ) C.%XK.&.-.qXkXlXzXxXxXxXlX9X+.L ` T > ; * * = & & & * * * ",
"* * * & * * * * * - : l T V.R.}.,X-XJ.g ^ A.*XL.&.-.9XtXhXlXxXcXzXhX9X+.] ` E > ; & = & & & * & & & ",
"& & & & & & & & & X o f F Q J.'.<X}.L.$ [ J.:XE.(.*.;.9XtXhXxXlXhXkX).O.L P P : X & & & X & & & & & ",
"& & & X & & & & X   . 9 i <.8.j.m.c.j.q U } ;X&X~.(.(.-.qXtXzXqX9X;.L z s 9.9.9 . & & & & & & & & & ",
"& & * & * & * & * & . i i <.l.l.k.k.j.i ,.w.}.{.{.R.F.@.0XyXjX9X-.X.N l u 9.1.9 9 O & & = & & & & & ",
"................3 3 5 6 9 0 2.3.2.5.7.0.4.>.6 F V.D.} +.0XyXhX9X-.X.A l I 5.0.>.8 6 4 4 3 3 3 3 3 3 ",
"X.+.+.+.+.X.+.X...3 4 6 q 3.p.p.a.p.a.0.4.>.6 K J.R.} @.:.qXtX:.-.$.A l I 5.0.0 8 6 r ........3 ....",
"@.@.@.@.@.@.@.+.X...p 6 y 6.f.v.f.g.g.0.4.>.6  .J.~.F.#.:.).wX;.@.O.J g ,.5.0.0 8 6 r ..............",
"@.@.@.@.@.@.@.+.X.G e 6 y 6.v.v.f.f.g.0.4.>.6  .R.%X&X}.(.(.-.(.'.}.~ l I 5.0.0 9 7 p ..............",
"X.X.X.+.X.X.X.X.p 4 < w t ,.r.7.7.7.7.4.,.,.K D.Q.%X=X,XL.F.$.L.}.[./ l u u ,.8 8 7 ..X.+.+.X.+.X.+.",
"..X.........X...1 < % $ w t 0 y 0 u 0 q U w.{.{.].%X*X:XL.[ z R.&X=X~ g w t q 7 5 * X.@.@.@.@.@.@.@.",
"................1 < # g D F Q | D.D.D. .J.{.*X].Q.!.=X:XG.( c Y.&X=X) g x % . O = * X.@.@.@.@.@.@.@.",
"................4 > > c Y / S.J.R.R.R.J.R.Q.%X!.!.!.%X;XA.( g I.!.=XB.Y z $ O X = 1 X.@.+.@.+.+.+.+.",
"..........p ..G > k j b ! C.].[.*X*X*X%X!.{.W.!.!.%X*X*XC.^ g A.!.=XY.C./ n + X = * ..X.X.X.+.X.X.X.",
"3 3 3 3 3 3 3 V j l b ( C.R.*X%XW.W.W.!.!.!.!.%X*X*X%X!.B.R g B.T.!.=X=XS.~ h o = * 3 Z 3 ..3 3 3 ..",
"3 3 3 3 3 3 3 2 g v b C.Z.W.*X].I.I.Y.Q.!.!.%X%X%X%X].W.M.R g B.Y.Q.*X;XG.^ c + = = 4 3 3 3 3 3 3 3 ",
"3 3 3 3 3 3 3 2 f b T T.W.Q.%XT.N.B.C.!.].%X;X%X].W.T.I.M.T g M.C.T.%X*XY.N.T h # - 3 3 3 3 3 3 3 3 ",
"3 3 3 3 3 3 3 2 g b T T.W.W.W.Z.^ ) B.!.!.!.!.T.U.I.I.A.^ Y g ^ C.Z.W.Q.I.C.N.v l h 2 3 3 3 3 3 3 3 ",
"3 3 3 3 3 3 3 2 f v Y Z.Z.Z.Z.V.T ~ M.Q.T.Y.Y.C.B.B.N.B.R b l ! M.B.G.Z.C.B.B.b v g 2 3 3 3 3 3 3 3 ",
"3 3 3 3 3 3 3 2 j g g f g f f f f l x l x l l g f g g g l l l f l l f l l g f f h h 3 3 3 3 3 3 3 3 ",
"3 3 3 3 3 3 3 3 - : : : : + + # : M C C M > : : : M M M > > : : : : : : : : + + # : 3 3 3 3 3 3 3 3 ",
"3 3 3 3 3 3 3 3 1 * * * & & & & * ......3 * * * * 3 3 3 3 1 * * * * * * * & & & & & 1 3 3 3 3 3 3 3 "
};
