/* XPM */
static char *player[] = {
/* columns rows colors chars-per-pixel */
"50 67 244 2 ",
"   c #000000",
".  c #010101",
"X  c #020202",
"o  c #030303",
"O  c #040404",
"+  c #050505",
"@  c #060606",
"#  c #070707",
"$  c #080808",
"%  c #0A0A0A",
"&  c #0B0B0B",
"*  c #0C0C0C",
"=  c #0D0D0D",
"-  c #0E0E0E",
";  c #0F0F0F",
":  c #101010",
">  c #111111",
",  c #121212",
"<  c #131313",
"1  c #141414",
"2  c #151515",
"3  c #161616",
"4  c #171717",
"5  c #181818",
"6  c #191919",
"7  c #1A1A1A",
"8  c #1B1B1B",
"9  c #1C1C1C",
"0  c #1D1D1D",
"q  c #1E1E1E",
"w  c #1F1F1F",
"e  c #202020",
"r  c #212121",
"t  c #222222",
"y  c #232323",
"u  c #242424",
"i  c #252525",
"p  c #262626",
"a  c #272727",
"s  c #282828",
"d  c #292929",
"f  c #2A2A2A",
"g  c #2B2B2B",
"h  c #2C2C2C",
"j  c #2D2D2D",
"k  c #2E2E2E",
"l  c #2F2F2F",
"z  c #303030",
"x  c #313131",
"c  c #323232",
"v  c #333333",
"b  c #343434",
"n  c #353535",
"m  c #363636",
"M  c #373737",
"N  c #383838",
"B  c #3A3A3A",
"V  c #3B3B3B",
"C  c #3C3C3C",
"Z  c #3D3D3D",
"A  c #3E3E3E",
"S  c #3F3F3F",
"D  c #414141",
"F  c #424242",
"G  c #434343",
"H  c #444444",
"J  c #464646",
"K  c #474747",
"L  c #484848",
"P  c #494949",
"I  c #4A4A4A",
"U  c #4B4B4B",
"Y  c #4C4C4C",
"T  c #4E4E4E",
"R  c #4F4F4F",
"E  c #505050",
"W  c #515151",
"Q  c #525252",
"!  c #535353",
"~  c #545454",
"^  c #555555",
"/  c #565656",
"(  c #575757",
")  c #585858",
"_  c #595959",
"`  c #5A5A5A",
"'  c #5B5B5B",
"]  c #5C5C5C",
"[  c #5D5D5D",
"{  c #5E5E5E",
"}  c #5F5F5F",
"|  c #606060",
" . c #636363",
".. c #646464",
"X. c #656565",
"o. c #666666",
"O. c #676767",
"+. c #686868",
"@. c #696969",
"#. c #6A6A6A",
"$. c #6B6B6B",
"%. c #6C6C6C",
"&. c #6D6D6D",
"*. c #6E6E6E",
"=. c #6F6F6F",
"-. c #707070",
";. c #717171",
":. c #727272",
">. c #737373",
",. c #747474",
"<. c #757575",
"1. c #767676",
"2. c #777777",
"3. c #787878",
"4. c #797979",
"5. c #7A7A7A",
"6. c #7B7B7B",
"7. c #7C7C7C",
"8. c #7D7D7D",
"9. c #7E7E7E",
"0. c #7F7F7F",
"q. c #808080",
"w. c #818181",
"e. c #828282",
"r. c #838383",
"t. c #848484",
"y. c #858585",
"u. c #868686",
"i. c #878787",
"p. c #888888",
"a. c #898989",
"s. c #8A8A8A",
"d. c #8B8B8B",
"f. c #8C8C8C",
"g. c #8D8D8D",
"h. c #8F8F8F",
"j. c #909090",
"k. c #919191",
"l. c #929292",
"z. c #949494",
"x. c #979797",
"c. c #989898",
"v. c #999999",
"b. c #9A9A9A",
"n. c #9B9B9B",
"m. c #9C9C9C",
"M. c #9D9D9D",
"N. c #9E9E9E",
"B. c #9F9F9F",
"V. c #A0A0A0",
"C. c #A1A1A1",
"Z. c #A2A2A2",
"A. c #A3A3A3",
"S. c #A4A4A4",
"D. c #A5A5A5",
"F. c #A6A6A6",
"G. c #A7A7A7",
"H. c #A8A8A8",
"J. c #A9A9A9",
"K. c #AAAAAA",
"L. c #ABABAB",
"P. c #ACACAC",
"I. c #ADADAD",
"U. c #AEAEAE",
"Y. c #AFAFAF",
"T. c #B0B0B0",
"R. c #B1B1B1",
"E. c #B2B2B2",
"W. c #B3B3B3",
"Q. c #B4B4B4",
"!. c #B5B5B5",
"~. c #B6B6B6",
"^. c #B7B7B7",
"/. c #B8B8B8",
"(. c #B9B9B9",
"). c #BABABA",
"_. c #BBBBBB",
"`. c #BCBCBC",
"'. c #BDBDBD",
"]. c #BEBEBE",
"[. c #BFBFBF",
"{. c #C0C0C0",
"}. c #C1C1C1",
"|. c #C2C2C2",
" X c #C3C3C3",
".X c #C4C4C4",
"XX c #C5C5C5",
"oX c #C6C6C6",
"OX c #C7C7C7",
"+X c #C8C8C8",
"@X c #C9C9C9",
"#X c #CACACA",
"$X c #CBCBCB",
"%X c #CCCCCC",
"&X c #CDCDCD",
"*X c #CECECE",
"=X c #CFCFCF",
"-X c #D0D0D0",
";X c #D1D1D1",
":X c #D2D2D2",
">X c #D3D3D3",
",X c #D4D4D4",
"<X c #D5D5D5",
"1X c #D6D6D6",
"2X c #D7D7D7",
"3X c #D8D8D8",
"4X c #D9D9D9",
"5X c #DADADA",
"6X c #DBDBDB",
"7X c #DCDCDC",
"8X c #DDDDDD",
"9X c #DEDEDE",
"0X c #DFDFDF",
"qX c #E1E1E1",
"wX c #E2E2E2",
"eX c #E3E3E3",
"rX c #E4E4E4",
"tX c #E5E5E5",
"yX c #E6E6E6",
"uX c #E7E7E7",
"iX c #E8E8E8",
"pX c #E9E9E9",
"aX c #EAEAEA",
"sX c #EBEBEB",
"dX c #ECECEC",
"fX c #EDEDED",
"gX c #EEEEEE",
"hX c #EFEFEF",
"jX c #F0F0F0",
"kX c #F1F1F1",
"lX c #F2F2F2",
"zX c #F3F3F3",
"xX c #F4F4F4",
"cX c #F5F5F5",
"vX c #F6F6F6",
"bX c #F7F7F7",
"nX c #F8F8F8",
"mX c #F9F9F9",
"MX c #FAFAFA",
"NX c #FBFBFB",
"BX c #FCFCFC",
"VX c #FDFDFD",
"CX c #FEFEFE",
"ZX c #FFFFFF",
/* pixels */
"                                        O                 O O                                       ",
"                                O     4.qXyXyXyXyXyXyXyXyXqX1.                                      ",
"                              ; W xXMXMXVXVXVXVXVXVXVXVXVXVXMXMXMXW ;                               ",
"                          O C MXVXVXVXVXVXVXVXVXVXVXVXVXVXVXVXVXVXVXMXC O                           ",
"                          V VXVXVXVXVXVXVXVXVXVXVXVXVXVXVXVXVXVXVXVXVXVXV                           ",
"                        J xXVXVXVXVXVXVXVXVXVXVXVXVXVXVXVXVXVXVXVXVXVXVXxXJ                         ",
"                        9XVXVXVXVXVXVXVXVXVXVXVXVXVXVXVXVXVXVXVXVXVXVXVXVX9X                        ",
"                      ' sXVXVXVXVXVXVXVXVXVXVXVXVXVXVXVXVXVXVXVXVXVXVXVXVXsX]                       ",
"                      OXVXVXVXVXVXVXVXVXVXVXVXVXVXVXVXVXVXVXVXVXVXVXVXVXVXVX#X                      ",
"                      #XVXVXVXqX| O.O.O.| &XVXVXVXVXVXVX&X| O.O.O.O.qXVXVXVX#X                      ",
"                      #XVXxXW C           m ,XVXVXVXVX,Xm           C W MXMX#X                      ",
"                      #XMXJ O               {.VXVXVXVX{.                D MXOX                      ",
"                      #XVX;       R ,X#.    {.VXVXVXVX{.    %.3XR       ; VX#X                      ",
"                      OXVX<       ' VX4.O O {.VXVXMXVX{.O O 0.MX'       < VXOXO                     ",
"                      O 9XxX7 <         O I.VXVX4 4 VXVXL.          < 7 xX3XO                       ",
"                        ~.MXMX,Xh h h 7 0 _.VX,X< 4 3XVX_.0 7 g h h ,XMXMX~.                        ",
"                        O jXVXVXVXsX{.0.E.VXVXh     g VXVXE.0.[.sXVXVXVXjX                          ",
"                        P MXVXhXOX{.^ I.VXVXVXg     g VXVXVXI.^ {.{.jXVXMXP                         ",
"                        9XVXVX&Xg _.VXVXVXVXMXr.#.#.r.VXVXVXVXVXVXP 0.jXVX9X                        ",
"                        9XMXt.%.u 0.r.{.VXVXVXVXVXVXVXVXVXVXVX_.t.u   1.MX9X                        ",
"                        9XMXl.1.P S.D r.:.:.%.%.%.%.:.%.:.%.%.r.m O 1.l.MX9X                        ",
"                        R xXVXsXl.C %.&XS.m r.S.< S.S.0.m S.^ l.] 4.hXVXxXW                         ",
"                      O O hXVXVXsX1.y S.MXW {.VX4 VXVX{.W VXr.g g.sXVXVXjXO g _._.#.                ",
"              O :.&X&Xz O m VXVXMXsX#X0.m 4 {.VX7 VXVX{.W I.0 1.hXVXVXVXm 0 ,XVXMXyX|               ",
"              O.hXVXVXyXy O V MXVXVXVXhX9XP 7 y O 0 y 7 ; %.9XjXVXVXMXV < qXVXVXL.y ;               ",
"            $ 4.jXjXVXVXjX7 ; $ R hXxXxXVXMXMXxXMXxXMXxXxXMXxXxXjXP $   hXVXMXI.O %.:.$             ",
"            ' 4.O   N.9X9XVXyX0 O O   1.9X9X9X9X9XqX9X9XqX9X1.    O   0 xXMXI.    O d.1.;           ",
"              O O       O {.MX:Xg O     O u <       $ g         O g V yXVXI.O       #.sX:.;         ",
"          7 z             O ~.OX&XP g     I.1.P P P O.[.        z &XVXVXI.O   4 z     :.yXV         ",
"        4 :.O.      D <       y _.VX~.] u %.yXVXVXVXjX4.  u ' ] {._.S.A.$   4 :.#.      :.#.<       ",
"      < 4.| O       E.V     O O J :Xg.OXL.g #.sXVXVX,X0 :.L.MX[.g.g   O     m E.O         OXt.O     ",
"    $ t.| O         ~.m         J S.  t.I.g   #.0.4.#.y S.#X~.%.            m E.        O ] sXd.    ",
"    < ,XO O         ~.m         J S.  r.#.  1.N.c.g.O O ^ c.4.:.          7 I.~.            ^ hX    ",
"    S.P             E.m         J qXI.,XO.  {.VXVXxXx.h OX9X:X%.        $ ~.VXE.              sXN.  ",
"$ O yX              E.&X0 _.{.OX:X_.C A.O.  OXVXVXVX3XC MXE.c.:.O O O I.{.qXO.E.              hXyX  ",
"O {.hX              E.VX3Xz u g u O.4.4 l.J {.VXVXVX,XC ~.7 0.:.  N.3XMXz y m ~.O             h yX  ",
"  qXjX              E.P 4         ' g.4.xX^ {.VXVXVX3XC xXsXjX%.x.R < 4 O   m MXl.            $ yX  ",
"O :XhX4           N.R O           ' jX:.c.W {.VXVXVX,XD L.O 0.%.S.J           R N.            O yX  ",
"  O :X3Xy         N.P             ' l.7 L.W {.VXVXVX,XD ~.h 0.1.c.V           R N.            h qX  ",
"    ; #X,Xh       A.P             J t.r.yX^ {.VXVXVX3XC sX,Xr.l.]             P A.          m hXI.  ",
"      0 [.#XW h O A.P               :.4.c.W {.VXVXVX3XC I.O.L.t.C             P A.      O D yXI.    ",
"        y ~.VXd.  N.P   O           %.0.c.^ 1.c.c.c.r.D L.O.&XJ           O 7 l.N.      P 3XS.$     ",
"          g E.d.  N.A.0.4           %._.#XS.0.4.4.4.4.N.:XI.t.            4 c.VXN.C 0.4.r.r.4       ",
"            h C R :XVXVXN.$         :.VXVXVXVXt.:.%.:.:.N.MXOXg.g.l.g.l.g.N.VX,XP 1.VXS.u           ",
"              O m ] &XVXVXS.A.S.A.A.t.] ] ] | <         y ] ] ] ] ] ] ] ] :.VX~.  h ] g             ",
"                    m P P J P J J P g       O                 O           ; P z       O             ",
"                                                              O D m         u 7                     ",
"                      4 C   g ^ y                             O VX,X        x.^                     ",
"                    ; :.O.O 0.VX] O                           $ VX:X        ' 1.7                   ",
"                    g {.  z _.~.m O             z P           O VX:X          L.D                   ",
"                    g OX  | VX:.              g t.0.J         O VX,X          L.J                   ",
"                    u {.  O.VX:.              P A.:.1.        O VXjX0.        L.D                   ",
"                    u OX  O.VX:.              P A.:.4.        O VXVX[.        z c.y                 ",
"                  < E.h J 9Xc.4               P N.7 t.W       O VXVX[.          [.h                 ",
"                  4 3X  W VXt.              h sXN.  d.|       O VXVX[.          [.h                 ",
"                  < 3X  W VXt.              m _.$   t.O.      O y MX[.          [.h                 ",
"                  4 ,X  W VXt.              z ~.    t.|         7 VX[.          _.h                 ",
"                  < 9Xm 1.VXt.              m ~.    d.O.        7 VX#Xy   7 m m #Xg                 ",
"                  < E.~.~.~.r.P P P P P P P | r.O   ] 1.P P P P ' MXMX[.P r.~.~.~.y                 ",
"                            R A.A.A.A.S.A.A.r.        O.A.A.A.A.A.A.A.A.A.W                         ",
"                  O O       O   O   O       O                 O.                      O             ",
"                  t.t.t.] O J t.t.t.0                         sXt.d.t.t.t.J     O.t.t.$             ",
"                g.MXVXVX9Xc.r._.VXVXm                     O t.xXVXVXVXVX[.m ] c.qXVXVXc.t.O         ",
"              l.MXVXVXVXVXVX,X4.[.MXm                       3XVXVXVXVX{.4.E.9XVXVXVXVXVXjXd.        ",
"              ,XVXVXVXVXVXVXVX:.g D ;                     O m C C C D #.3XVXVXVXVXVXVXVXVXOX        ",
"            O ,XVXVXVXVXVXVXMXyXR c.,X7                 O S.3X,X,X,XN.' VXVXVXVXVXVXVXVX9Xy O       ",
"              < 4 < < 4 4 4 4 < O < 4                     ; 4 4 4 < ; $ 4 < 4 < < 4 4 4 <           "
};
