/* XPM */
static char *v[] = {
/* columns rows colors chars-per-pixel */
"50 50 55 1 ",
"  c #202020",
". c #212121",
"X c #222222",
"o c #232323",
"O c #242424",
"+ c #252525",
"@ c #262626",
"# c #272727",
"$ c #282828",
"% c #292929",
"& c #2A2A2A",
"* c #2B2B2B",
"= c #2C2C2C",
"- c #2D2D2D",
"; c gray18",
": c #2F2F2F",
"> c #303030",
", c #313131",
"< c #323232",
"1 c #333333",
"2 c #343434",
"3 c #353535",
"4 c #363636",
"5 c #373737",
"6 c #383838",
"7 c #393939",
"8 c #3A3A3A",
"9 c #3B3B3B",
"0 c #3C3C3C",
"q c #3D3D3D",
"w c #3E3E3E",
"e c #3F3F3F",
"r c #404040",
"t c #414141",
"y c #424242",
"u c #434343",
"i c #444444",
"p c #454545",
"a c #464646",
"s c #474747",
"d c #484848",
"f c #494949",
"g c #4A4A4A",
"h c #4B4B4B",
"j c #4C4C4C",
"k c #4D4D4D",
"l c #4E4E4E",
"z c #4F4F4F",
"x c #505050",
"c c #515151",
"v c #535353",
"b c #545454",
"n c #555555",
"m c #565656",
"M c #585858",
/* pixels */
"aaaaaaat-+  -99999e9ttaaaee9etaat-+  +-->>9ee99999",
"aaaaaaat-+  -ee9e999taaaa999etaat$+  $---599999e9e",
"aaaaaaat-+  -99999e9etaaa999etaat-+  +--->99e99999",
"aaaaaaat-+  -ee99e99taaaae9eetaat-+  $-->>9999e9e9",
"aaaaaaat-   -999e999ttaaa9e9etaat-+  $---599999e9e",
"aaaaaaat-+  -9e9e9e9taaaa999etaat-+  +--->9e999999",
"aaaaaaat-+  -e9e9999taaaae99etaat$+  $-->599e9999e",
"ataataat-   -99999e9etatt999eeaat-+  $-->>59999999",
"eeeeeee9$+  $>>5599eeeeee>>55eaat$+  -55555>5>5>->",
"ee9e9ee9$   $>>>>99999e9e>->59aat-+  -9955->--->->",
"e999e9e5$+  $-->>9999e9e9--->9aat-+  -e995>-------",
"999e9999$+  +--->9e999eee$-->9aat-+  -e995--------",
"------>-+   ++$$$-->>--->+$$$-5>>++  $---$$+++$+$+",
"                                                  ",
"                                                  ",
"+++++++++++++$+$$+$++$+$+     +++++$$+++++++++++++",
"-$----$---$--->>>>>>->>>>    +$$$->>>>-$----$-----",
"ttttttttttttgvvvvvvvvvvvv   $-99egjvvgtttttttttttt",
"aaaaaaaaaaaajMMMMMmMMMMMm   $>e9tjmMmvaaaaaaaaaaaa",
"aaaaaaaaaaaavMMmMMMMMMMMM   $-99ejmmMjaaaaaaaaaaaa",
"ttttttttaaaaagjgjjvjvjvjv   $>e9egjvjgaaaatttttttt",
"teeeeeeeaaaaataaajggjjjgg   $-9eeaggjgaaateeeeeeee",
"99e9e9eetaaate99eaaaaaaaa   $-99etaaaaaaate9e9999e",
"9e99999ettaaee9eeaaaaaaaa   $-9eetaaaaaaate99e9e99",
"e999eee9aaaate9eeaaaaaaga   $>e9eaaaaaaaate9e9e9e9",
"----$------->99e999e5>---    $------$59e9e99999999",
"------------59e99e995>---   +$-------5999ee9999ee9",
"------------599999e95>---    +-------59999999e9999",
"$$$$$$-$$-$$-5>5>55>>-$$$   ++$$$-$$$>>5>55>5>55>5",
"$$$$+++$+$$+$-------$$$+$    +$$+$$+$$------------",
"                                                  ",
"                                                  ",
"++++++++      ++ $++++++++$+++++     +++++$+$$$++$",
"99999995$   $5>59agate999aagtte99++  -999etaaaaaaa",
"ttttttte-+  -599ejvvgatttvvvjgtte$+  >ttaavvvvvvvv",
"aaaaaaat-+  -e9tammMvgaaaMmmmjaat-+  >aaajmmmMMMMM",
"aaaaaaat-+  -99eammmjgaaaMMMvjaat-+  5aagjmMMmMMMM",
"jvvjvjja-+  -eeetjjvjgaaajjvjjaat-+  -99etjjjvvjjj",
"MMMMmMMv>+  -99eeaaaaaaaaaaaaaaat$+  +---5tgaaaaaa",
"MMMMMMMv>$  -e99eaaaaaaaaaaaaaaat-+  +---5taaaaaaa",
"mmmmvmmj>+  -9999tttaaaaatattaaat-+  $---5taaaaaaa",
"jjvjjvjg>+  -9559eeeetttteeettaat-+  +---5ettttttt",
"teeette9$+  +>-->>>>59eee>>>59aat$+  +---59e9eeeee",
"9e99e995$+  $------->999e--$59aat-+  $--->9e99e99e",
"999e99e9$+  +------->5999---59aat-+  $--->99e9e999",
"e999e995$+  $-------55e99--->9aat-+  $-->>9999999e",
"9e9e9999$+  +------->99e9---59aat$+  +-->>9999e999",
"9999e999$+  $-----$-5599e--->9aat-+  $-->>99e9e99e",
"e999e9e5$+  +-------55e99--->9aat-+  $-->>999e99e9",
"999e9999$   $------->999e---59aat-+  +-->>9e999e99"
};
