/* XPM */
static char *vide[] = {
/* columns rows colors chars-per-pixel */
"50 38 38 1 ",
"  c #030201",
". c #020301",
"X c #030301",
"o c #030302",
"O c #030303",
"+ c #040301",
"@ c #040302",
"# c #050302",
"$ c #040303",
"% c #050303",
"& c #060302",
"* c #070302",
"= c #060303",
"- c #070303",
"; c #030402",
": c #030403",
"> c #040402",
", c #050402",
"< c #040403",
"1 c #050403",
"2 c #040503",
"3 c #050503",
"4 c #060402",
"5 c #070402",
"6 c #060403",
"7 c #070403",
"8 c #060503",
"9 c #070503",
"0 c #040404",
"q c #050404",
"w c #040504",
"e c #050504",
"r c #060404",
"t c #070404",
"y c #060504",
"u c #070504",
"i c #070604",
"p c #080503",
/* pixels */
":<:::::::o:ooo::::o::<<<<*o:::<<<p<i<ii<ii<i2:222:",
":<:::o:::o:ooooo::o::*<<<<:oo:<<<<<ip<iii<i<i:22:i",
":::::ooo::oooooo:::*o<*<<<*oo<<<<p<<i<<ii<<<i:<<22",
"o:::oooo:o:o:ooo::::<<o<<<<*o<<<<<<<<<<<<<i<::iii:",
"::::::::::o::oooo:::<<:<<p<*<o<<:::<<<<<i<<<i<<<:2",
"::o::o::<oo<::oooo*<<***<<<p<<<:::<<<<<<<<p<i<i<ii",
":<:oo::oooo*<**ooo:<<<<<<pp<<<<oo*<<p<<<<<<<<<i<:i",
"::::::::<::<::<<::<<<<<<<<<<p<<<**<<<<<<<<i<<<<<:i",
"<:::::::<:::*:o<<o*<*<o***<<<<<<*oo<<<::::<<<<<<i<",
"<<:<o:::<**<:o<<<<ooo:*o<<*<<pppp<oo*<<:::<<<<<<<i",
"<<<<o*<o<<o*<****oooooo*<******p<<ooooo:<:<<<<<<<:",
"<:<<o<::*:o:<oo<:*o*ooo**<<<<p**<<oooo:o:<<<<<<<ii",
"<<*<*o<oo:o<*o<<<o*ooooo*<*****<p**ooo*o:<ooo:::<<",
"<<p<<<oo<oo**<oo*o<oo**o**<<***<*<<*ooo<o<<<:::<<i",
"<<<<<<<ooo:<ooooo*<*oooooo<<<*<***<**ooo<<<<<*<<<i",
"<<<<<*<*<*oo:*o*ooo*o*o*oooo***p*p<*<o:**<<<<<<<<<",
"p<<<<<<<0ooooo*ooooooo*ooooo**o***:<**<<*<<<<p<*<<",
"<<p<tp<<*o*oo*Oo<*o*o*ooooooooo*:*<<<:p<<<*<<<<<i<",
"<p<<<<<t*O*o*o*oooooooooooooo*oo<<*o<*<<<***<p<<<<",
"<<**p<<*0o0ooooo*oo*oo*oooooooooo*o:<**<<<::<<<<<p",
"p<<pqqqp0*0**oo*oo*ooo*oooooooooo*o:**q*<p<<**<<pp",
"<<<<**<<*0t0o*oo*oooooooooooooooo***<*<p*p*<*<<<<i",
"<:<pO0*0*t*t*ooooooooooooooooooooo:****<*<<<o<<<<<",
"<:***0***0**00ooooooooooooooooooooo*<o<<<<<*o<<<<<",
"<:**<<p**0**t0o*oooooooooooooooooooo***op<<<p<<<p<",
"<<<<<<<*0t*t****ooooooooooooooooooooooo*<p<<<<<<<<",
"<<<<<p**t*t*t0*0oooooooooooooooooooooo*o<<<p<<<<<p",
"<<*<<<<<tt*t*****oooooooooooooooooooo*o*<<<<p<<<<<",
"<qp<<<<ttt00:*o*ooooooooooooooooooooo:::<*<<p<<p<<",
"<t<<p<<tt0*t*o*ooo*ooooooooooooooooo:o***<*<<<<ip<",
"i<ttt<p<*0t00****oooooooooooooooo*oooooo<<<<p<p<<<",
"qp<ppp<p0***0ooooooooooooooooooooooo*ooo*<<<<<<p<i",
"qiqp<p<<<p<<<<<<:oooooooooooooo*:oo*oooo<<<<<<<p<<",
"<<p<ip<p<<<p<<<<oooooooooooo*<oooo:o**<*<<p<<p<<ip",
"qq<qi<<i<<<<<<p<::oooooooooo:oo*o*:<<<<<<<<<<pp<i<",
"qi<<q<pqi<<<<<<<ooooo::oooooo::o*<<<<<<<<<<<<<<p<i",
"iq<<q<<q<<<:<<*oooooooo:oooo:o:<o:<<<<p<<<<<p<<ppi",
"q<qqt<<<<<::<<:oo::o*:o:oo::::<o<<<<<p<<<<p<<pppii"
};
